<svg width="63" height="63" viewBox="0 0 63 63" fill="none" xmlns="http://www.w3.org/2000/svg">
<g id="mdi:books">
<path id="Vector" d="M49.875 47.25H23.625C22.2326 47.25 20.8973 46.6969 19.9127 45.7123C18.9281 44.7277 18.375 43.3924 18.375 42V10.5C18.375 9.10761 18.9281 7.77226 19.9127 6.78769C20.8973 5.80312 22.2326 5.25 23.625 5.25H26.25V18.375L31.5 14.4375L36.75 18.375V5.25H49.875C51.2674 5.25 52.6027 5.80312 53.5873 6.78769C54.5719 7.77226 55.125 9.10761 55.125 10.5V42C55.125 43.3924 54.5719 44.7277 53.5873 45.7123C52.6027 46.6969 51.2674 47.25 49.875 47.25ZM44.625 52.5V57.75H13.125C11.7326 57.75 10.3973 57.1969 9.41269 56.2123C8.42812 55.2277 7.875 53.8924 7.875 52.5V15.75H13.125V52.5H44.625Z" fill="#BE1347"/>
</g>
</svg>
