<svg width="58" height="58" viewBox="0 0 58 58" fill="none" xmlns="http://www.w3.org/2000/svg">
<path d="M31.4163 7.25C40.7929 7.25 48.3329 14.8383 48.3329 24.1667C48.3329 30.9333 44.3938 36.7092 38.6663 39.4158V50.75H21.7496V43.5H19.3329C16.6504 43.5 14.4996 41.3492 14.4996 38.6667V31.4167H10.8746C9.8596 31.4167 9.2796 30.2083 9.8596 29.4592L14.4996 23.345C14.7125 19.003 16.5882 14.9094 19.7377 11.9128C22.8872 8.91629 27.069 7.24664 31.4163 7.25ZM31.4163 2.41666C20.3238 2.41666 11.1404 10.6817 9.81126 21.5083L6.04127 26.5833H5.96877L5.92043 26.6558C4.59127 28.4925 4.4221 30.9092 5.46127 32.915C6.33127 34.5825 7.87793 35.7425 9.66626 36.105V38.6667C9.66626 43.1375 12.7596 46.9317 16.9163 48.0192V55.5833H43.4996V42.2917C49.5413 38.2558 53.1663 31.5617 53.1663 24.1667C53.1663 12.1558 43.4029 2.41666 31.4163 2.41666ZM41.0829 21.3392C41.0829 25.0608 37.7963 28.0333 32.8179 32.5525L31.4163 33.8333L30.0146 32.5525C25.0363 28.0333 21.7496 25.0608 21.7496 21.3392C21.7496 18.4392 24.0696 16.0467 26.9696 16.0225H27.0663C28.7338 16.0225 30.3288 16.7717 31.4163 18.0283C32.5038 16.7717 34.0988 16.0225 35.7663 16.0225C38.6663 15.9983 41.0829 18.3425 41.0829 21.2425V21.3392Z" fill="#BE1347"/>
</svg>
