<svg width="132" height="132" viewBox="0 0 132 132" fill="none" xmlns="http://www.w3.org/2000/svg">
<path d="M88 17.765C91.905 13.255 96.855 11 102.85 11C107.855 11 112.035 12.815 115.5 16.5C118.965 20.185 120.78 24.365 121 29.15C121 33 119.185 37.455 115.5 42.68C111.815 47.905 108.24 52.25 104.665 55.825C101.09 59.345 95.535 64.57 88 71.5C80.355 64.57 74.745 59.345 71.17 55.825C67.595 52.305 63.965 47.905 60.335 42.68C56.705 37.455 55 33 55 29.15C55 24.145 56.76 19.965 60.335 16.5C63.91 13.035 68.2 11.22 73.205 11C79.09 11 83.985 13.255 88 17.765ZM121 104.5V110L77 123.75L38.5 113.08V121H5.5V60.5H49.335L83.215 73.15C86.234 74.2888 88.8349 76.3194 90.672 78.972C92.5091 81.6245 93.4955 84.7734 93.5 88H104.5C113.63 88 121 95.37 121 104.5ZM27.5 110V71.5H16.5V110H27.5ZM109.45 102.135C108.57 100.32 106.645 99 104.5 99H75.075C72.105 99 69.19 98.56 66.385 97.625L53.295 93.28L56.76 82.83L69.85 87.175C71.5 87.725 82.5 88 82.5 88C82.5 85.965 81.235 84.15 79.365 83.435L47.355 71.5H38.5V101.75L76.835 112.255L109.45 102.135Z" fill="#234635"/>
</svg>
