<svg width="119" height="119" viewBox="0 0 119 119" fill="none" xmlns="http://www.w3.org/2000/svg">
<path d="M24.792 47.1042C24.792 47.1042 12.0416 52.0626 9.91699 69.4167M94.2087 47.1042C94.2087 47.1042 106.959 52.0626 109.084 69.4167M44.6253 47.1042C44.6253 47.1042 56.5253 49.9974 59.5003 64.4584C62.4753 49.9974 74.3753 47.1042 74.3753 47.1042M49.5837 84.2917C49.5837 84.2917 39.1712 86.1511 34.7087 99.1667M69.417 84.2917C69.417 84.2917 79.8295 86.1511 84.292 99.1667" stroke="#234635" stroke-width="8" stroke-linecap="round"/>
<path d="M59.5003 89.25C66.3464 89.25 71.8962 83.7002 71.8962 76.8542C71.8962 70.0082 66.3464 64.4584 59.5003 64.4584C52.6543 64.4584 47.1045 70.0082 47.1045 76.8542C47.1045 83.7002 52.6543 89.25 59.5003 89.25Z" stroke="#234635" stroke-width="8" stroke-linecap="round" stroke-linejoin="round"/>
<path d="M84.292 49.5834C92.5072 49.5834 99.167 42.9236 99.167 34.7084C99.167 26.4931 92.5072 19.8334 84.292 19.8334C76.0768 19.8334 69.417 26.4931 69.417 34.7084C69.417 42.9236 76.0768 49.5834 84.292 49.5834Z" stroke="#234635" stroke-width="8" stroke-linecap="round" stroke-linejoin="round"/>
<path d="M34.709 49.5834C42.9242 49.5834 49.584 42.9236 49.584 34.7084C49.584 26.4931 42.9242 19.8334 34.709 19.8334C26.4937 19.8334 19.834 26.4931 19.834 34.7084C19.834 42.9236 26.4937 49.5834 34.709 49.5834Z" stroke="#234635" stroke-width="8" stroke-linecap="round" stroke-linejoin="round"/>
</svg>
