<svg
          width="150"
          height="150"
          viewBox="0 0 150 150"
          fill="none"
          xmlns="http://www.w3.org/2000/svg"
        >
          <path
            d="M75 18.7688C72.5402 18.7688 70.1044 19.2533 67.8319 20.1946C65.5593 21.136 63.4944 22.5157 61.755 24.2551C60.0156 25.9944 58.6359 28.0593 57.6946 30.3319C56.7532 32.6045 56.2687 35.0402 56.2687 37.5C56.2687 39.9599 56.7532 42.3956 57.6946 44.6682C58.6359 46.9408 60.0156 49.0057 61.755 50.745C63.4944 52.4844 65.5593 53.8641 67.8319 54.8055C70.1044 55.7468 72.5402 56.2313 75 56.2313C79.9678 56.2313 84.7322 54.2578 88.245 50.745C91.7578 47.2323 93.7313 42.4679 93.7313 37.5C93.7313 32.5322 91.7578 27.7678 88.245 24.2551C84.7322 20.7423 79.9678 18.7688 75 18.7688ZM117.188 28.125C113.458 28.125 109.881 29.6066 107.244 32.2439C104.607 34.8811 103.125 38.4579 103.125 42.1875C103.125 45.9172 104.607 49.494 107.244 52.1312C109.881 54.7685 113.458 56.25 117.188 56.25C120.917 56.25 124.494 54.7685 127.131 52.1312C129.768 49.494 131.25 45.9172 131.25 42.1875C131.25 38.4579 129.768 34.8811 127.131 32.2439C124.494 29.6066 120.917 28.125 117.188 28.125ZM32.8125 28.125C29.0829 28.125 25.506 29.6066 22.8688 32.2439C20.2316 34.8811 18.75 38.4579 18.75 42.1875C18.75 45.9172 20.2316 49.494 22.8688 52.1312C25.506 54.7685 29.0829 56.25 32.8125 56.25C36.5421 56.25 40.119 54.7685 42.7562 52.1312C45.3934 49.494 46.875 45.9172 46.875 42.1875C46.875 38.4579 45.3934 34.8811 42.7562 32.2439C40.119 29.6066 36.5421 28.125 32.8125 28.125ZM46.875 74.9344C46.8923 72.4594 47.8877 70.0917 49.644 68.3477C51.4002 66.6037 53.7749 65.625 56.25 65.625H93.75C96.2364 65.625 98.621 66.6128 100.379 68.3709C102.137 70.1291 103.125 72.5136 103.125 75V103.125C103.124 106.076 102.663 109.008 101.756 111.816C99.6804 118.179 95.4041 123.593 89.6954 127.087C83.9868 130.58 77.2196 131.924 70.609 130.878C63.9985 129.831 57.9776 126.462 53.6276 121.375C49.2776 116.289 46.8835 109.818 46.875 103.125V74.9344ZM37.5 75C37.5 71.5782 38.4094 68.3813 40.0125 65.625H18.75C16.2636 65.625 13.879 66.6128 12.1209 68.3709C10.3627 70.1291 9.375 72.5136 9.375 75V98.4376C9.37372 102.275 10.3146 106.054 12.1151 109.442C13.9155 112.831 16.5204 115.726 19.701 117.872C22.8816 120.019 26.5407 121.352 30.3568 121.754C34.1729 122.156 38.0294 121.615 41.5875 120.178C38.8892 114.896 37.488 109.047 37.5 103.116V75ZM112.5 75V103.125C112.5 109.266 111.028 115.059 108.412 120.178C111.971 121.615 115.827 122.156 119.643 121.754C123.459 121.352 127.118 120.019 130.299 117.872C133.48 115.726 136.085 112.831 137.885 109.442C139.685 106.054 140.626 102.275 140.625 98.4376V75C140.625 72.5136 139.637 70.1291 137.879 68.3709C136.121 66.6128 133.736 65.625 131.25 65.625H109.988C111.581 68.3813 112.5 71.5782 112.5 75Z"
            fill="#234635"
          />
        </svg>