<svg width="61" height="61" viewBox="0 0 61 61" fill="none" xmlns="http://www.w3.org/2000/svg">
<g id="fluent:shield-checkmark-16-filled">
<path id="Vector" d="M29.1542 8.18163C29.3313 8.00411 29.5416 7.86326 29.7732 7.76716C30.0048 7.67106 30.2531 7.6216 30.5038 7.6216C30.7546 7.6216 31.0028 7.67106 31.2344 7.76716C31.466 7.86326 31.6764 8.00411 31.8534 8.18163C36.5809 12.9244 41.8193 15.25 47.6562 15.25C48.1618 15.25 48.6467 15.4508 49.0042 15.8083C49.3617 16.1658 49.5625 16.6507 49.5625 17.1563V21.35C45.6788 19.3651 41.2729 18.6406 36.9582 19.2774C32.6434 19.9142 28.6346 21.8806 25.4899 24.9028C22.3453 27.925 20.2212 31.8525 19.4136 36.1386C18.6059 40.4246 19.1549 44.8558 20.984 48.8153C14.6553 44.1793 11.4375 37.4006 11.4375 28.5938V17.1563C11.4375 16.6507 11.6383 16.1658 11.9958 15.8083C12.3533 15.4508 12.8382 15.25 13.3438 15.25C19.1769 15.25 24.4152 12.9206 29.1542 8.18163ZM57.1875 40.0313C57.1875 37.7783 56.7437 35.5473 55.8816 33.4658C55.0194 31.3843 53.7557 29.4931 52.1625 27.9C50.5694 26.3069 48.6782 25.0431 46.5967 24.1809C44.5152 23.3188 42.2842 22.875 40.0312 22.875C37.7783 22.875 35.5473 23.3188 33.4658 24.1809C31.3843 25.0431 29.4931 26.3069 27.8999 27.9C26.3068 29.4931 25.0431 31.3843 24.1809 33.4658C23.3188 35.5473 22.875 37.7783 22.875 40.0313C22.875 44.5814 24.6825 48.9451 27.8999 52.1626C31.1174 55.38 35.4811 57.1875 40.0312 57.1875C44.5814 57.1875 48.9451 55.38 52.1625 52.1626C55.38 48.9451 57.1875 44.5814 57.1875 40.0313ZM49.0059 32.9629C49.1834 33.14 49.3242 33.3503 49.4203 33.5819C49.5164 33.8135 49.5659 34.0618 49.5659 34.3125C49.5659 34.5632 49.5164 34.8115 49.4203 35.0431C49.3242 35.2747 49.1834 35.4851 49.0059 35.6621L37.5684 47.0996C37.3913 47.2772 37.1809 47.418 36.9494 47.5141C36.7178 47.6102 36.4695 47.6597 36.2188 47.6597C35.968 47.6597 35.7197 47.6102 35.4881 47.5141C35.2566 47.418 35.0462 47.2772 34.8691 47.0996L31.0566 43.2871C30.6987 42.9292 30.4976 42.4437 30.4976 41.9375C30.4976 41.4313 30.6987 40.9458 31.0566 40.5879C31.4146 40.2299 31.9 40.0288 32.4062 40.0288C32.9125 40.0288 33.3979 40.2299 33.7559 40.5879L36.2188 43.0546L46.3066 32.9629C46.4837 32.7854 46.6941 32.6445 46.9256 32.5484C47.1572 32.4523 47.4055 32.4028 47.6562 32.4028C47.907 32.4028 48.1553 32.4523 48.3869 32.5484C48.6184 32.6445 48.8288 32.7854 49.0059 32.9629Z" fill="#BE1347"/>
</g>
</svg>
