<svg width="124" height="124" viewBox="0 0 124 124" fill="none" xmlns="http://www.w3.org/2000/svg">
<path d="M108.273 57.3862C107.394 48.5668 104.012 40.1823 98.5273 33.2204C93.0421 26.2585 85.6815 21.0092 77.3127 18.091C68.9438 15.1727 59.9151 14.7069 51.2904 16.7486C42.6656 18.7903 34.804 23.2543 28.6316 29.6149C22.4592 35.9754 18.2332 43.9675 16.4514 52.6496C14.6695 61.3318 15.4061 70.3424 18.5743 78.6199C21.7425 86.8974 27.2103 94.0971 34.3337 99.3708C41.4572 104.644 49.9394 107.772 58.7812 108.386" stroke="#234635" stroke-width="8" stroke-linecap="round" stroke-linejoin="round"/>
<path d="M62 36.1667V62.0001L64.5833 64.5834M93 113.667L110.308 96.6994C111.37 95.6694 112.214 94.4373 112.791 93.0756C113.369 91.714 113.667 90.2504 113.67 88.7714C113.672 87.2925 113.378 85.828 112.805 84.4644C112.232 83.1009 111.392 81.866 110.334 80.8326C108.175 78.7212 105.277 77.5363 102.257 77.5305C99.2374 77.5247 96.3347 78.6985 94.1677 80.8016L93.0103 81.9382L91.8582 80.8016C89.6994 78.6917 86.8024 77.5078 83.7838 77.5021C80.7652 77.4963 77.8637 78.669 75.6968 80.7706C74.6351 81.8002 73.7904 83.0321 73.2126 84.3936C72.6348 85.755 72.3356 87.2185 72.3327 88.6975C72.3299 90.1764 72.6233 91.641 73.1958 93.0047C73.7682 94.3685 74.6081 95.6036 75.6658 96.6374L93 113.667Z" stroke="#234635" stroke-width="8" stroke-linecap="round" stroke-linejoin="round"/>
</svg>
